<?xml version="1.0" standalone="no"?>
<!DOCTYPE svg PUBLIC "-//W3C//DTD SVG 20010904//EN"
 "http://www.w3.org/TR/2001/REC-SVG-20010904/DTD/svg10.dtd">
<svg version="1.0" xmlns="http://www.w3.org/2000/svg"
 width="280.000000pt" height="280.000000pt" viewBox="0 0 280.000000 280.000000"
 preserveAspectRatio="xMidYMid meet">
<metadata>
Created by potrace 1.11, written by Peter Selinger 2001-2013
</metadata>
<g transform="translate(0.000000,280.000000) scale(0.100000,-0.100000)"
fill="#000000" stroke="none">
<path d="M1233 2345 c0 -8 4 -12 9 -9 5 3 6 10 3 15 -9 13 -12 11 -12 -6z"/>
<path d="M1456 2322 c-3 -5 1 -9 9 -9 8 0 12 4 9 9 -3 4 -7 8 -9 8 -2 0 -6 -4
-9 -8z"/>
<path d="M1433 2285 c0 -8 4 -12 9 -9 5 3 6 10 3 15 -9 13 -12 11 -12 -6z"/>
<path d="M1515 2289 c-4 -6 -14 -8 -22 -5 -9 4 -22 1 -30 -6 -8 -7 -45 -13
-81 -14 -37 -1 -67 -3 -67 -4 0 -3 -41 -10 -72 -13 -18 -1 -33 -5 -33 -9 0
-11 -23 -5 -32 7 -4 6 -8 1 -8 -9 0 -11 -3 -17 -6 -13 -3 3 -25 -3 -49 -13
-32 -14 -45 -16 -49 -7 -3 7 -5 6 -5 -3 -1 -12 -63 -47 -67 -38 0 2 -8 -3 -17
-11 -10 -7 -17 -10 -17 -5 0 4 -6 0 -13 -11 -10 -12 -16 -14 -21 -7 -4 7 -13
12 -19 12 -7 0 -6 -4 3 -10 13 -9 12 -12 -4 -21 -10 -7 -35 -27 -56 -45 -33
-30 -39 -32 -57 -19 -17 12 -20 12 -20 0 0 -8 3 -14 6 -13 24 2 20 -8 -19 -47
-24 -24 -47 -42 -52 -39 -5 3 -7 1 -6 -4 2 -5 -6 -18 -17 -28 -12 -11 -14 -15
-5 -9 14 9 -4 -16 -37 -52 -15 -17 -26 -17 -17 0 4 6 3 8 -1 4 -12 -10 -15
-38 -4 -31 5 3 -3 -15 -19 -40 -16 -28 -35 -46 -47 -47 -17 -1 -17 -2 -3 -6
24 -6 23 -12 -14 -58 -18 -22 -25 -34 -15 -26 21 16 23 -2 2 -19 -8 -7 -13
-15 -10 -19 2 -4 -2 -19 -10 -34 -8 -15 -11 -27 -8 -27 3 0 -1 -8 -8 -17 -10
-11 -10 -14 -2 -9 10 6 11 1 2 -21 -6 -15 -10 -30 -10 -33 1 -3 -3 -5 -8 -5
-5 0 -13 -4 -18 -8 -4 -5 -1 -7 7 -5 10 2 14 -4 13 -17 -1 -11 -3 -36 -5 -55
-1 -19 -7 -38 -13 -42 -6 -5 -6 -8 3 -8 6 0 12 -7 12 -15 0 -8 -6 -15 -12 -15
-8 0 -9 -3 -3 -8 12 -8 18 -65 6 -58 -4 3 -8 -1 -8 -9 0 -8 4 -12 9 -9 4 3 8
-2 8 -10 0 -9 -6 -16 -12 -16 -10 0 -9 -3 1 -9 7 -5 10 -14 7 -20 -4 -6 -2
-11 5 -11 8 0 9 -4 0 -13 -7 -10 -7 -17 0 -24 6 -6 12 -24 13 -40 2 -17 6 -35
10 -41 4 -7 5 -12 2 -12 -3 0 3 -20 14 -45 11 -25 15 -45 10 -45 -6 0 -10 -5
-10 -11 0 -5 5 -7 10 -4 6 3 10 0 10 -9 0 -8 4 -16 9 -18 5 -2 11 -10 13 -18
2 -8 6 -18 11 -21 4 -3 10 -16 12 -30 3 -13 12 -30 22 -36 9 -7 13 -13 8 -13
-5 0 -18 9 -30 20 -17 16 -22 17 -22 6 0 -8 5 -14 11 -13 6 1 10 -4 8 -11 -1
-8 2 -11 7 -8 14 9 52 -27 54 -52 1 -13 6 -21 14 -18 17 7 28 -13 14 -27 -9
-9 -10 -7 -5 8 7 19 7 19 -9 3 -19 -18 -23 -33 -7 -23 6 3 10 -1 10 -9 0 -9
-5 -16 -11 -16 -5 0 -7 -5 -3 -11 4 -8 12 -2 21 15 7 14 18 26 23 26 14 0 12
-14 -2 -28 -14 -14 -20 -44 -7 -36 5 3 7 9 4 14 -3 4 2 11 11 14 22 8 26 8 19
-3 -8 -14 25 -43 42 -37 8 3 11 1 8 -4 -7 -11 19 -53 27 -45 15 15 -1 -38 -18
-57 -13 -15 -14 -19 -2 -10 11 9 18 10 23 2 5 -8 11 -8 21 1 8 6 14 8 14 3 0
-4 5 -3 12 4 7 7 17 12 23 12 5 0 1 -7 -9 -15 -10 -8 -23 -12 -27 -9 -5 3 -9
0 -9 -5 0 -6 4 -11 9 -11 6 0 8 -9 6 -20 -3 -17 -1 -18 14 -10 27 14 35 -2 9
-17 -13 -7 -16 -13 -8 -12 31 3 59 -13 53 -29 -4 -13 -1 -12 11 3 17 20 17 20
13 -3 -6 -27 8 -20 16 8 3 11 0 23 -5 27 -7 4 -8 1 -3 -8 6 -11 5 -12 -5 -2
-21 19 -6 25 24 9 21 -10 23 -15 11 -19 -8 -4 -14 -10 -13 -14 1 -4 -3 -19
-10 -33 -13 -24 -12 -24 3 -5 9 11 21 19 26 17 5 -1 9 2 9 8 0 5 -6 10 -12 11
-7 0 -4 4 7 8 23 9 100 -22 100 -40 0 -7 6 -14 14 -17 8 -3 11 0 7 7 -4 6 -2
11 3 11 13 0 14 -10 2 -29 -6 -9 -11 -10 -15 -2 -4 6 -12 9 -17 5 -6 -3 -18 1
-28 10 -17 16 -19 16 -26 -1 -13 -29 -14 -43 -5 -48 5 -3 7 3 5 15 -2 11 0 22
6 25 11 7 52 -19 43 -28 -8 -8 18 -3 34 6 16 10 16 -5 -1 -22 -10 -10 -8 -11
6 -5 12 4 17 14 14 25 -3 10 4 25 17 36 21 18 21 18 3 -3 -17 -21 -17 -21 7
-22 14 0 23 4 20 9 -3 5 2 6 11 3 14 -6 14 -8 -2 -20 -15 -11 -16 -13 -2 -14
9 0 19 3 23 7 3 4 17 8 29 10 21 3 21 2 3 -12 -10 -8 -23 -12 -29 -8 -6 3 -7
1 -3 -5 3 -6 2 -13 -4 -17 -5 -3 -10 -1 -10 4 0 6 -4 11 -8 11 -5 0 -9 -7 -9
-15 0 -8 4 -12 9 -9 4 3 8 0 8 -5 0 -6 5 -11 11 -11 5 0 8 4 4 9 -3 5 -1 12 5
16 5 3 10 -2 11 -12 0 -16 1 -16 8 2 5 11 19 29 32 40 l24 20 -19 -22 c-19
-23 -10 -33 11 -12 7 7 12 6 16 -5 3 -8 1 -18 -5 -22 -7 -4 -8 -3 -4 4 4 7 2
12 -3 12 -6 0 -11 -5 -11 -11 0 -8 -5 -8 -15 1 -20 17 -19 6 1 -15 13 -12 19
-13 30 -4 11 9 19 8 35 -7 17 -15 19 -15 14 -2 -6 14 -1 16 24 13 29 -4 30 -2
20 16 -6 12 -8 23 -6 26 3 2 8 -5 12 -16 3 -12 11 -19 16 -16 5 4 9 1 9 -5 0
-6 4 -9 9 -5 5 3 13 0 17 -6 5 -8 3 -9 -7 -4 -8 5 -11 5 -7 0 4 -4 3 -15 -2
-25 -6 -12 -5 -17 5 -17 7 0 11 6 8 13 -3 8 2 11 14 10 10 -2 24 1 31 7 16 12
16 -5 0 -21 -9 -9 -9 -12 0 -12 7 0 12 6 12 13 0 8 4 7 11 -3 8 -11 9 -9 3 10
-7 25 -6 25 14 7 13 -12 22 -15 27 -8 3 6 3 11 -1 11 -4 0 3 11 16 25 13 14
27 25 32 25 4 0 -1 -9 -12 -20 -11 -11 -20 -24 -20 -29 0 -15 23 -19 44 -8 15
7 18 6 13 -5 -3 -8 1 -15 8 -15 10 0 11 5 4 18 -14 26 -28 32 -35 15 -3 -9
-10 -13 -16 -10 -16 10 13 35 35 28 14 -4 17 -3 12 6 -5 9 -4 11 3 6 7 -4 12
-2 12 3 0 6 5 11 11 11 5 0 8 -4 5 -9 -4 -5 -3 -11 1 -14 5 -2 3 -2 -4 -1 -20
5 -22 -10 -6 -31 14 -18 15 -18 9 -1 -5 14 -2 17 9 12 9 -3 13 -2 10 3 -3 5
-1 12 5 16 5 3 10 1 10 -4 0 -6 7 -11 15 -11 8 0 15 4 15 10 0 5 6 7 14 4 8
-3 19 3 26 15 7 14 7 21 0 21 -5 0 -10 5 -10 11 0 6 5 7 13 2 6 -4 18 -8 25
-9 21 -4 21 -8 4 -24 -14 -13 -15 -12 -8 5 5 15 4 17 -4 9 -6 -6 -8 -18 -4
-28 6 -15 8 -15 21 4 12 17 18 19 29 9 10 -8 14 -8 14 0 0 6 -5 11 -11 11 -5
0 -7 5 -3 12 5 7 3 8 -6 3 -9 -5 -11 -4 -6 4 6 8 12 9 20 2 7 -6 16 -8 19 -4
4 3 14 0 24 -8 11 -9 14 -10 9 -1 -9 15 -1 15 27 1 19 -9 18 -7 -3 10 -18 14
-27 16 -32 8 -5 -8 -8 -5 -8 8 -1 20 -1 20 -15 1 -16 -21 -21 -10 -6 12 7 12
13 11 37 -1 16 -8 35 -12 43 -9 9 3 11 0 6 -9 -7 -12 -5 -12 6 -1 12 11 12 14
-1 22 -8 5 -11 13 -6 17 4 4 16 -2 26 -15 11 -13 21 -18 25 -12 3 5 2 10 -3
10 -14 0 -10 29 4 34 8 3 11 0 7 -10 -3 -7 1 -14 8 -14 7 0 9 3 6 7 -10 9 31
35 43 28 14 -9 59 43 57 66 -1 10 -10 22 -20 25 -10 3 -16 8 -14 11 3 2 15 0
26 -7 12 -6 21 -7 21 -1 0 5 -6 12 -12 15 -7 3 -4 4 6 3 13 -1 25 7 33 23 7
14 17 25 23 25 6 0 15 7 20 15 7 11 4 17 -8 22 -14 7 -14 7 3 5 14 -2 19 -9
17 -22 -3 -16 -2 -17 12 -6 12 10 13 17 5 27 -8 10 -7 18 7 31 16 16 17 16 11
1 -4 -12 2 -21 23 -31 24 -12 30 -13 34 -1 3 7 1 16 -4 19 -6 4 -10 11 -10 17
0 6 7 5 17 -3 14 -12 16 -12 8 0 -6 11 -4 13 9 8 14 -5 15 -3 6 13 -12 22 -3
53 13 43 6 -4 7 -1 2 7 -5 8 -3 11 6 8 8 -3 13 -14 12 -24 -1 -10 0 -13 3 -6
3 6 11 9 17 5 9 -5 9 -3 1 8 -14 17 -1 59 17 59 18 0 5 10 -19 15 -12 2 -25
-1 -28 -7 -5 -7 -2 -8 7 -3 8 5 11 4 6 -1 -5 -5 -14 -9 -19 -9 -6 0 -13 -6
-16 -13 -3 -11 0 -12 17 -3 17 10 21 9 21 -4 0 -9 -4 -13 -10 -10 -13 8 -52
-14 -45 -26 10 -15 -2 -10 -16 8 -10 12 -10 15 -1 9 8 -5 16 2 23 23 6 17 15
31 20 31 5 0 8 5 6 11 -1 8 14 12 40 12 24 0 40 3 37 8 -3 5 -16 7 -29 5 -33
-6 -40 9 -15 34 11 11 17 20 13 20 -3 0 2 9 12 20 22 25 9 26 -19 2 -21 -17
-21 -17 -3 4 9 11 14 24 10 29 -5 4 -3 5 4 2 16 -10 40 1 40 18 0 8 -4 15 -9
15 -4 0 -8 -4 -8 -8 0 -5 -7 -9 -16 -9 -15 0 -15 1 0 12 8 7 13 15 9 19 -4 4
1 4 12 0 11 -4 17 -4 13 1 -4 4 -3 14 3 22 9 10 8 13 -4 13 -8 0 -18 8 -22 17
-5 15 -4 16 6 6 15 -15 33 -17 24 -3 -3 6 -1 10 5 10 6 0 8 5 4 12 -4 7 -3 8
4 4 9 -5 9 -13 1 -27 -10 -19 -9 -20 10 -9 12 6 27 8 34 5 6 -4 4 0 -5 8 -10
8 -17 16 -15 18 1 2 0 3 -1 2 -5 -2 -42 36 -42 42 0 3 11 -2 24 -10 16 -11 26
-13 31 -6 3 6 3 11 -2 11 -4 0 0 5 10 11 9 5 17 15 17 22 0 8 -3 7 -9 -2 -5
-8 -14 -10 -21 -6 -8 5 -11 4 -6 -3 3 -6 2 -13 -3 -16 -11 -7 -36 22 -27 31 3
3 6 1 6 -7 0 -9 3 -10 13 -1 8 6 17 7 22 3 4 -4 4 4 0 16 -6 21 -5 23 13 13
26 -14 32 -14 32 0 0 5 -4 8 -8 5 -4 -2 -14 -1 -22 4 -12 7 -12 11 0 25 12 14
12 18 -1 26 -8 5 -18 9 -22 9 -5 0 -5 5 -2 10 4 7 13 6 26 -1 12 -6 23 -8 26
-6 2 3 -5 8 -16 12 -23 7 -27 20 -11 30 6 3 10 11 10 16 0 6 -12 -3 -26 -20
-24 -29 -27 -71 -5 -56 5 3 12 1 15 -4 7 -11 -13 -9 -31 2 -13 8 -12 71 0 83
10 10 9 26 -1 20 -5 -3 -9 1 -9 9 0 8 4 15 9 15 4 0 7 3 6 8 0 4 2 15 6 24 8
18 26 15 26 -3 0 -6 -4 -8 -9 -5 -11 7 -9 -13 4 -34 8 -13 7 -13 -8 -1 -12 9
-17 10 -17 2 0 -13 28 -26 37 -17 3 3 1 12 -5 19 -9 10 -9 16 0 25 8 8 8 15
-1 26 -13 15 -6 40 8 32 3 -3 7 4 7 15 0 19 -1 20 -14 2 -7 -10 -16 -17 -20
-16 -4 1 -6 -4 -4 -11 1 -7 -4 -18 -11 -25 -10 -8 -14 -7 -14 4 0 8 4 12 9 9
4 -3 8 -1 8 5 0 5 -6 12 -12 14 -10 4 -10 6 0 6 6 1 12 8 12 17 0 8 4 13 9 9
5 -3 13 0 17 7 4 7 4 10 -1 6 -14 -13 -49 21 -52 49 -4 51 -13 94 -23 113 -6
11 -9 23 -8 27 1 4 -3 18 -10 31 -7 12 -10 22 -7 22 3 0 -2 11 -11 24 -8 14
-15 26 -13 28 1 2 -8 22 -20 46 -12 23 -18 42 -14 42 4 0 -2 7 -13 15 -18 14
-18 14 3 10 94 -17 -2 228 -134 345 -91 80 -141 95 -353 104 -23 1 -34 6 -32
14 1 8 -2 11 -8 7 -6 -3 -8 -11 -4 -16 7 -13 -19 -7 -28 6 -5 6 -8 5 -8 -3 0
-7 -5 -10 -10 -7 -6 4 -8 12 -4 18 3 7 -2 3 -10 -7 -16 -20 -16 -20 -16 0 0
11 -3 15 -8 9 -4 -6 -13 -10 -19 -9 -7 1 -25 2 -39 3 -14 0 -23 4 -21 9 3 4
-6 8 -19 8 -42 3 -75 14 -69 24 3 6 4 10 1 10 -3 0 -8 -5 -11 -11z m-30 -19
c-3 -5 -11 -10 -16 -10 -6 0 -7 5 -4 10 3 6 11 10 16 10 6 0 7 -4 4 -10z m975
-1155 c6 4 6 -3 -2 -19 -13 -30 -28 -35 -23 -8 1 9 -3 24 -9 32 -9 13 -9 13 6
2 9 -8 22 -11 28 -7z m-50 -125 c0 -5 -2 -10 -4 -10 -3 0 -8 5 -11 10 -3 6 -1
10 4 10 6 0 11 -4 11 -10z m-105 -249 c-9 -8 -36 -10 -30 -2 2 4 11 8 20 8 8
0 13 -3 10 -6z m-55 -83 c0 -4 -4 -8 -9 -8 -6 0 -12 4 -15 8 -3 5 1 9 9 9 8 0
15 -4 15 -9z m35 -57 c-12 -11 -34 -8 -39 6 -3 8 -11 11 -17 7 -8 -5 -9 -3 -4
5 5 9 10 10 18 2 18 -18 31 -12 16 7 -11 14 -9 13 9 -2 12 -11 20 -22 17 -25z
m-114 -18 c13 -16 12 -17 -3 -4 -17 13 -22 21 -14 21 2 0 10 -8 17 -17z m95
-31 c-9 -8 -32 12 -33 29 -2 19 -1 18 17 -3 10 -13 17 -24 16 -26z m-1462 -34
c-5 -8 -2 -9 9 -5 21 8 18 -13 -3 -30 -18 -13 -34 -7 -23 10 4 7 8 15 9 20 3
15 4 17 10 17 3 0 2 -5 -2 -12z m1311 -38 c-3 -5 -12 -10 -18 -10 -7 0 -6 4 3
10 19 12 23 12 15 0z m-1231 -22 c-3 -4 0 -8 5 -8 6 0 11 -5 11 -11 0 -8 -5
-8 -15 1 -10 8 -15 9 -15 2 0 -6 8 -16 18 -21 9 -6 13 -11 8 -11 -5 0 -3 -6 3
-14 10 -12 8 -13 -9 -9 -12 3 -19 11 -17 17 3 7 -1 20 -9 31 -8 10 -14 13 -14
7 0 -7 -4 -12 -8 -12 -5 0 -9 7 -9 15 0 8 4 12 8 9 4 -2 10 -1 13 4 3 5 12 9
20 9 8 0 13 -4 10 -9z m42 -23 c1 -8 -2 -15 -6 -15 -5 0 -8 9 -7 20 1 21 10
18 13 -5z m1099 16 c3 -5 2 -12 -3 -15 -5 -3 -9 1 -9 9 0 17 3 19 12 6z m-38
-16 c0 -8 -4 -12 -9 -9 -5 3 -6 10 -3 15 9 13 12 11 12 -6z m-1020 -19 c0 -8
-6 -12 -15 -9 -11 5 -11 7 0 14 7 5 13 9 14 9 0 0 1 -6 1 -14z m1103 -1 c10
-12 10 -18 -1 -32 -21 -27 -32 -33 -45 -22 -8 6 -14 4 -18 -6 -3 -9 -10 -14
-16 -10 -14 9 -52 -14 -44 -27 4 -6 3 -8 -4 -4 -7 4 -7 14 3 32 7 15 12 35 10
45 -2 11 0 17 5 14 5 -3 6 -17 4 -32 -4 -23 -3 -25 10 -13 9 7 13 17 9 23 -3
6 -1 7 5 3 7 -4 12 -1 12 6 0 9 3 9 10 -2 5 -8 10 -11 10 -6 0 5 7 3 15 -4 8
-7 15 -8 15 -2 0 5 -10 17 -22 26 -23 16 -23 16 -1 6 13 -6 24 -6 28 -1 3 5
-3 12 -12 14 -15 4 -15 5 -2 6 9 0 22 -6 29 -14z m-1040 -35 c0 -5 -2 -10 -4
-10 -3 0 -8 5 -11 10 -3 6 -1 10 4 10 6 0 11 -4 11 -10z m51 -27 c13 -16 12
-17 -3 -4 -10 7 -18 15 -18 17 0 8 8 3 21 -13z m849 -8 c-7 -9 -15 -13 -19
-10 -3 3 1 10 9 15 21 14 24 12 10 -5z m-800 1 c0 -3 -4 -8 -10 -11 -5 -3 -10
-1 -10 4 0 6 5 11 10 11 6 0 10 -2 10 -4z m687 -31 c-9 -7 -15 -15 -12 -18 3
-4 2 -5 -2 -2 -15 11 -11 34 5 28 11 -5 13 -3 7 7 -6 9 -4 11 5 5 10 -6 10
-11 -3 -20z m74 10 c6 17 7 16 6 -6 -1 -23 -4 -25 -19 -15 -10 6 -18 18 -18
26 1 11 4 10 12 -5 11 -19 11 -19 19 0z m-437 -44 c14 -15 15 -21 4 -27 -7 -4
-10 -3 -5 1 4 5 0 17 -10 27 -9 10 -14 18 -11 18 3 0 13 -9 22 -19z m259 -8
c-3 -7 -6 -13 -8 -13 -2 0 -5 6 -8 13 -3 8 1 14 8 14 7 0 11 -6 8 -14z m77 7
c0 -5 -4 -10 -10 -10 -5 0 -10 5 -10 10 0 6 5 10 10 10 6 0 10 -4 10 -10z
m-400 -20 c0 -5 -2 -10 -4 -10 -3 0 -8 5 -11 10 -3 6 -1 10 4 10 6 0 11 -4 11
-10z m23 -5 c-3 -9 -8 -14 -10 -11 -3 3 -2 9 2 15 9 16 15 13 8 -4z m197 5 c0
-5 -4 -10 -10 -10 -5 0 -10 5 -10 10 0 6 5 10 10 10 6 0 10 -4 10 -10z m85 -8
c8 -21 -4 -35 -19 -23 -7 6 -16 8 -19 4 -4 -3 -7 -1 -7 5 0 7 5 12 11 12 5 0
8 4 5 8 -3 5 1 9 9 9 8 0 17 -7 20 -15z m-199 -7 c-3 -8 -1 -15 4 -15 6 0 10
5 10 12 0 6 3 8 7 5 3 -4 11 -3 18 1 6 4 4 0 -5 -8 -9 -9 -16 -23 -14 -33 3
-24 -1 -21 -27 15 -13 17 -18 28 -11 24 7 -4 12 -2 12 3 0 6 3 11 6 11 3 0 4
-7 0 -15z m-186 -5 c0 -5 -2 -10 -4 -10 -3 0 -8 5 -11 10 -3 6 -1 10 4 10 6 0
11 -4 11 -10z m30 6 c0 -3 -4 -8 -10 -11 -5 -3 -10 -1 -10 4 0 6 5 11 10 11 6
0 10 -2 10 -4z m94 -8 c-5 -7 -2 -9 9 -5 8 3 21 -1 28 -9 7 -8 8 -14 3 -13 -5
1 -11 0 -14 -1 -26 -10 -36 -6 -34 14 3 26 3 26 10 26 3 0 2 -5 -2 -12z m296
2 c0 -5 -4 -10 -10 -10 -5 0 -10 5 -10 10 0 6 5 10 10 10 6 0 10 -4 10 -10z"/>
<path d="M1995 369 c-4 -6 -5 -12 -2 -15 2 -3 7 2 10 11 7 17 1 20 -8 4z"/>
<path d="M1675 240 c3 -5 8 -10 11 -10 2 0 4 5 4 10 0 6 -5 10 -11 10 -5 0 -7
-4 -4 -10z"/>
<path d="M1273 2274 c0 -9 4 -11 12 -4 7 5 14 9 16 7 2 -1 3 0 1 2 -7 11 -29
7 -29 -5z"/>
<path d="M1119 2278 c-5 -18 -6 -38 -1 -34 7 8 12 36 6 36 -2 0 -4 -1 -5 -2z"/>
<path d="M1080 2260 c-9 -6 -10 -10 -3 -10 6 0 15 5 18 10 8 12 4 12 -15 0z"/>
<path d="M1145 2260 c-3 -6 1 -7 9 -4 18 7 21 14 7 14 -6 0 -13 -4 -16 -10z"/>
<path d="M1186 2258 c3 -5 10 -6 15 -3 13 9 11 12 -6 12 -8 0 -12 -4 -9 -9z"/>
<path d="M1075 2231 c-3 -5 0 -13 6 -17 8 -5 9 -3 4 6 -6 10 -4 12 9 7 10 -4
15 -3 11 3 -8 13 -22 13 -30 1z"/>
<path d="M1027 2220 c10 -11 9 -16 -5 -26 -15 -12 -15 -12 6 -7 27 6 28 16 5
34 -15 11 -16 11 -6 -1z"/>
<path d="M956 2202 c-3 -5 1 -9 9 -9 8 0 12 4 9 9 -3 4 -7 8 -9 8 -2 0 -6 -4
-9 -8z"/>
<path d="M895 2180 c-3 -5 -1 -10 4 -10 6 0 11 5 11 10 0 6 -2 10 -4 10 -3 0
-8 -4 -11 -10z"/>
<path d="M866 2162 c-3 -5 1 -9 9 -9 8 0 12 4 9 9 -3 4 -7 8 -9 8 -2 0 -6 -4
-9 -8z"/>
<path d="M930 2159 c0 -5 5 -7 10 -4 6 3 10 8 10 11 0 2 -4 4 -10 4 -5 0 -10
-5 -10 -11z"/>
<path d="M832 2125 c4 -4 4 -13 -2 -19 -6 -8 -2 -12 13 -13 12 0 16 1 9 4 -6
3 -10 9 -7 13 3 5 0 12 -7 16 -7 4 -10 4 -6 -1z"/>
<path d="M789 2083 c-13 -16 -12 -17 4 -4 16 13 21 21 13 21 -2 0 -10 -8 -17
-17z"/>
<path d="M734 2049 c-3 -6 -2 -15 3 -20 5 -5 9 -1 9 11 0 23 -2 24 -12 9z"/>
<path d="M730 2006 c0 -2 7 -7 16 -10 8 -3 12 -2 9 4 -6 10 -25 14 -25 6z"/>
<path d="M717 1973 c3 -7 6 -13 8 -13 2 0 5 6 8 13 3 8 -1 14 -8 14 -7 0 -11
-6 -8 -14z"/>
<path d="M667 1959 c7 -7 15 -10 18 -7 3 3 -2 9 -12 12 -14 6 -15 5 -6 -5z"/>
<path d="M630 1946 c0 -2 7 -7 16 -10 8 -3 12 -2 9 4 -6 10 -25 14 -25 6z"/>
<path d="M615 1920 c-3 -5 -1 -10 4 -10 6 0 11 5 11 10 0 6 -2 10 -4 10 -3 0
-8 -4 -11 -10z"/>
<path d="M635 1890 c-4 -6 -10 -8 -15 -5 -5 3 -11 2 -14 -3 -2 -4 6 -8 18 -8
12 0 23 6 23 13 0 16 -4 16 -12 3z"/>
<path d="M526 1862 c-3 -5 1 -9 9 -9 8 0 12 4 9 9 -3 4 -7 8 -9 8 -2 0 -6 -4
-9 -8z"/>
<path d="M510 1816 c0 -2 8 -10 18 -17 15 -13 16 -12 3 4 -13 16 -21 21 -21
13z"/>
<path d="M580 1811 c0 -6 4 -13 10 -16 6 -3 7 1 4 9 -7 18 -14 21 -14 7z"/>
<path d="M554 1785 c0 -16 4 -21 15 -17 10 4 11 7 3 10 -7 2 -10 8 -7 12 3 5
2 11 -3 14 -4 2 -8 -6 -8 -19z"/>
<path d="M2350 1715 c0 -8 4 -15 10 -15 5 0 7 7 4 15 -4 8 -8 15 -10 15 -2 0
-4 -7 -4 -15z"/>
<path d="M2393 1685 c0 -8 4 -12 9 -9 5 3 6 10 3 15 -9 13 -12 11 -12 -6z"/>
<path d="M466 1638 c3 -5 10 -6 15 -3 13 9 11 12 -6 12 -8 0 -12 -4 -9 -9z"/>
<path d="M2386 1621 c-3 -5 1 -14 10 -21 8 -7 12 -20 9 -29 -4 -12 -3 -13 5
-5 12 12 3 44 -12 44 -5 0 -6 5 -3 10 3 6 4 10 1 10 -3 0 -7 -4 -10 -9z"/>
<path d="M2415 1529 c5 -13 8 -33 9 -43 1 -11 7 -21 14 -24 14 -4 16 24 2 33
-5 3 -10 15 -10 25 0 10 -5 22 -11 26 -8 4 -9 -1 -4 -17z"/>
<path d="M2453 1519 c-2 -23 3 -25 10 -4 4 8 3 16 -1 19 -4 3 -9 -4 -9 -15z"/>
<path d="M453 1495 c0 -8 4 -12 9 -9 5 3 6 10 3 15 -9 13 -12 11 -12 -6z"/>
<path d="M2439 1444 c0 -5 -2 -17 -4 -26 -2 -10 1 -18 6 -18 5 0 9 5 9 11 0 5
6 7 13 3 7 -5 7 -1 -3 12 -8 10 -16 21 -17 23 -2 2 -3 0 -4 -5z"/>
<path d="M2466 1438 c3 -5 10 -6 15 -3 13 9 11 12 -6 12 -8 0 -12 -4 -9 -9z"/>
<path d="M2468 1393 c7 -3 16 -2 19 1 4 3 -2 6 -13 5 -11 0 -14 -3 -6 -6z"/>
<path d="M436 1255 c-9 -26 -7 -32 5 -12 6 10 9 21 6 23 -2 3 -7 -2 -11 -11z"/>
<path d="M2495 1260 c3 -5 8 -10 11 -10 2 0 4 5 4 10 0 6 -5 10 -11 10 -5 0
-7 -4 -4 -10z"/>
<path d="M2449 1218 c-4 -15 -6 -38 -3 -38 2 0 8 9 14 20 7 14 7 20 0 20 -5 0
-10 -1 -11 -2z"/>
<path d="M2495 1180 c3 -5 8 -10 11 -10 2 0 4 5 4 10 0 6 -5 10 -11 10 -5 0
-7 -4 -4 -10z"/>
<path d="M2515 1020 c-3 -5 -1 -10 4 -10 6 0 11 5 11 10 0 6 -2 10 -4 10 -3 0
-8 -4 -11 -10z"/>
<path d="M490 939 c0 -5 5 -7 10 -4 6 3 10 8 10 11 0 2 -4 4 -10 4 -5 0 -10
-5 -10 -11z"/>
<path d="M2450 940 c0 -6 -4 -9 -9 -5 -12 7 -25 -13 -27 -40 0 -14 6 -21 18
-22 19 -2 24 12 8 22 -5 3 -10 14 -10 23 0 13 2 13 16 -4 8 -10 12 -13 8 -5
-3 7 -1 17 6 21 9 5 9 9 1 14 -6 4 -11 2 -11 -4z"/>
<path d="M2470 899 c0 -5 5 -7 10 -4 6 3 10 8 10 11 0 2 -4 4 -10 4 -5 0 -10
-5 -10 -11z"/>
<path d="M495 880 c3 -5 8 -10 11 -10 2 0 4 5 4 10 0 6 -5 10 -11 10 -5 0 -7
-4 -4 -10z"/>
<path d="M530 870 c0 -5 5 -10 11 -10 5 0 7 5 4 10 -3 6 -8 10 -11 10 -2 0 -4
-4 -4 -10z"/>
<path d="M2403 852 c-9 -6 -8 -11 5 -19 15 -9 18 -7 19 8 2 20 -5 23 -24 11z"/>
<path d="M2455 841 c-3 -5 -2 -12 3 -15 5 -3 9 1 9 9 0 17 -3 19 -12 6z"/>
<path d="M550 830 c0 -5 5 -10 11 -10 5 0 7 5 4 10 -3 6 -8 10 -11 10 -2 0 -4
-4 -4 -10z"/>
<path d="M2380 815 c-7 -8 -9 -15 -4 -15 4 0 -2 -9 -14 -20 -26 -25 -27 -27
-7 -27 8 0 15 7 15 15 0 12 4 11 23 -4 12 -10 16 -12 10 -4 -10 11 -10 17 2
30 13 15 13 19 2 29 -11 9 -17 8 -27 -4z m24 -4 c3 -5 -1 -14 -8 -20 -12 -10
-14 -9 -11 6 2 10 4 19 4 21 2 5 10 2 15 -7z"/>
<path d="M2416 782 c-3 -5 1 -9 9 -9 8 0 12 4 9 9 -3 4 -7 8 -9 8 -2 0 -6 -4
-9 -8z"/>
<path d="M535 760 c3 -5 8 -10 11 -10 2 0 4 5 4 10 0 6 -5 10 -11 10 -5 0 -7
-4 -4 -10z"/>
<path d="M580 740 c0 -5 7 -7 15 -4 8 4 15 8 15 10 0 2 -7 4 -15 4 -8 0 -15
-4 -15 -10z"/>
<path d="M567 719 c7 -7 15 -10 18 -7 3 3 -2 9 -12 12 -14 6 -15 5 -6 -5z"/>
<path d="M603 723 c4 -3 1 -13 -6 -22 -10 -14 -10 -14 4 -4 9 7 19 10 23 6 4
-4 4 0 0 10 -3 9 -11 17 -17 17 -6 0 -7 -3 -4 -7z"/>
<path d="M2400 720 c-9 -6 -10 -10 -3 -10 6 0 15 5 18 10 8 12 4 12 -15 0z"/>
<path d="M605 680 c-3 -5 -1 -10 4 -10 6 0 11 5 11 10 0 6 -2 10 -4 10 -3 0
-8 -4 -11 -10z"/>
<path d="M690 601 c0 -4 5 -12 12 -19 9 -9 9 -15 0 -24 -7 -7 -12 -16 -12 -22
0 -5 6 -2 13 7 11 16 13 16 29 -2 9 -11 13 -23 10 -27 -4 -4 -1 -4 6 0 6 4 12
3 12 -3 0 -5 -6 -12 -12 -14 -10 -4 -10 -6 0 -6 18 -1 28 29 13 39 -7 4 -12
11 -11 15 1 4 -12 20 -29 36 -17 15 -31 25 -31 20z m51 -48 c13 -16 12 -17 -3
-4 -10 7 -18 15 -18 17 0 8 8 3 21 -13z"/>
<path d="M676 563 c-6 -14 -5 -15 5 -6 7 7 10 15 7 18 -3 3 -9 -2 -12 -12z"/>
<path d="M2207 548 c11 -12 9 -18 -7 -33 -11 -10 -20 -15 -20 -10 0 4 -6 2
-13 -4 -8 -6 -17 -8 -20 -4 -4 3 -7 0 -7 -8 -1 -8 -11 -27 -24 -43 -28 -34
-25 -69 4 -36 9 11 20 17 24 15 3 -3 4 -2 1 1 -2 4 0 15 6 26 8 15 13 17 25 7
10 -8 14 -8 14 0 0 11 -14 15 -35 11 -5 -1 -4 4 3 12 10 10 16 10 32 0 16 -10
20 -10 18 0 -2 7 3 12 10 11 6 -2 12 2 12 7 0 6 -5 10 -11 10 -5 0 -7 5 -4 10
4 7 13 7 26 0 29 -16 23 -7 -13 20 -18 13 -27 17 -21 8z m-67 -101 c0 -2 -10
-12 -21 -23 -22 -19 -22 -19 -8 4 12 19 29 30 29 19z"/>
<path d="M2086 363 c-6 -14 -5 -15 5 -6 7 7 10 15 7 18 -3 3 -9 -2 -12 -12z"/>
<path d="M983 358 c6 -16 -15 -43 -25 -33 -2 3 -5 -2 -5 -10 0 -9 4 -11 11 -6
6 5 16 10 21 11 6 1 9 6 8 11 -4 14 15 11 41 -6 19 -13 23 -13 23 -1 0 13 -34
28 -53 25 -4 0 -11 5 -16 13 -8 10 -9 9 -5 -4z"/>
<path d="M2115 360 c-3 -5 -1 -10 4 -10 6 0 11 5 11 10 0 6 -2 10 -4 10 -3 0
-8 -4 -11 -10z"/>
<path d="M2013 310 c1 -21 10 -18 13 5 1 8 -2 15 -6 15 -5 0 -8 -9 -7 -20z"/>
<path d="M1127 277 c-3 -7 -2 -19 3 -26 5 -10 8 -9 13 2 3 7 2 19 -3 26 -5 10
-8 9 -13 -2z"/>
<path d="M1930 259 c0 -5 5 -7 10 -4 6 3 10 8 10 11 0 2 -4 4 -10 4 -5 0 -10
-5 -10 -11z"/>
<path d="M1100 240 c-9 -6 -10 -10 -3 -10 6 0 15 5 18 10 8 12 4 12 -15 0z"/>
<path d="M1830 242 c0 -5 7 -9 15 -9 8 0 12 4 9 9 -3 4 -9 8 -15 8 -5 0 -9 -4
-9 -8z"/>
<path d="M1333 206 c-4 -5 -1 -6 5 -2 7 4 12 2 12 -5 0 -8 5 -7 16 2 15 12 16
11 10 -11 -6 -19 -5 -21 3 -10 6 8 11 20 11 26 0 14 -49 13 -57 0z"/>
<path d="M1728 213 c-22 -5 -24 -20 -3 -20 8 0 16 6 19 14 3 7 4 12 3 12 -1
-1 -10 -3 -19 -6z"/>
<path d="M1176 201 c-3 -4 4 -7 14 -6 27 2 33 10 10 12 -11 1 -22 -2 -24 -6z"/>
<path d="M1230 201 c0 -6 4 -13 10 -16 6 -3 7 1 4 9 -7 18 -14 21 -14 7z"/>
<path d="M1270 200 c0 -5 5 -10 10 -10 6 0 10 5 10 10 0 6 -4 10 -10 10 -5 0
-10 -4 -10 -10z"/>
<path d="M1306 179 c2 -4 13 -7 24 -6 23 2 17 10 -10 12 -10 1 -17 -2 -14 -6z"/>
<path d="M1530 171 c0 -7 -5 -9 -12 -5 -7 5 -8 3 -3 -5 5 -9 10 -10 18 -2 6 6
8 14 4 18 -4 3 -7 1 -7 -6z"/>
<path d="M1593 145 c0 -8 4 -12 9 -9 5 3 6 10 3 15 -9 13 -12 11 -12 -6z"/>
</g>
</svg>
